<svg xmlns="http://www.w3.org/2000/svg" width="60" height="59.995" viewBox="0 0 60 59.995">
  <g id="develop" transform="translate(0 -0.022)">
    <g id="Group_26" data-name="Group 26" transform="translate(0 23.107)">
      <g id="Group_25" data-name="Group 25">
        <path id="Path_57" data-name="Path 57" d="M58.828,219.935A1.172,1.172,0,0,0,60,218.763v-2.049a8.026,8.026,0,0,0-4.421-7.162,6.271,6.271,0,0,0,2.23-4.8v-1.461a6.284,6.284,0,1,0-12.568,0v1.461a6.26,6.26,0,0,0,1.722,4.315,15.431,15.431,0,0,0-5.749,2.606L30.6,219.418a4.291,4.291,0,0,0-.6.535,4.3,4.3,0,0,0-.6-.535l-10.612-7.741a15.431,15.431,0,0,0-5.749-2.606,6.26,6.26,0,0,0,1.722-4.315v-1.461a6.284,6.284,0,1,0-12.568,0v1.461a6.271,6.271,0,0,0,2.23,4.8A8.025,8.025,0,0,0,0,216.714v16.036a1.172,1.172,0,0,0,1.172,1.172H15.778a1.172,1.172,0,0,0,1.172-1.172v-10.76l7.667,4.623a4.274,4.274,0,0,0,4.358.062,4.389,4.389,0,0,0,1.025-.8,4.383,4.383,0,0,0,1.025.8,4.273,4.273,0,0,0,4.358-.062l7.668-4.623v10.76a1.172,1.172,0,0,0,1.172,1.172H58.828A1.172,1.172,0,0,0,60,232.749v-4.234a1.172,1.172,0,0,0-2.344,0v3.062H45.394V220.763a1.19,1.19,0,0,0-.015-.178l1.274-.768a1.172,1.172,0,0,0-1.21-2.007l-11.27,6.8a1.979,1.979,0,0,1-3-1.695,1.985,1.985,0,0,1,.813-1.6L42.6,213.57a13.087,13.087,0,0,1,7.763-2.531h1.623a5.681,5.681,0,0,1,5.675,5.674v2.049A1.172,1.172,0,0,0,58.828,219.935ZM4.535,203.295a3.94,3.94,0,1,1,7.88,0v1.461a3.94,3.94,0,0,1-7.88,0Zm23.288,21.338a1.957,1.957,0,0,1-2-.028l-11.27-6.8a1.172,1.172,0,0,0-1.21,2.007l1.272.767a1.185,1.185,0,0,0-.014.179v10.815H2.344V216.714a5.681,5.681,0,0,1,5.675-5.674H9.641A13.087,13.087,0,0,1,17.4,213.57l10.612,7.741a1.985,1.985,0,0,1,.813,1.6A1.957,1.957,0,0,1,27.822,224.633Zm27.643-19.878a3.94,3.94,0,0,1-7.88,0v-1.461a3.94,3.94,0,1,1,7.88,0Z" transform="translate(0 -197.011)" fill="#326e91"/>
      </g>
    </g>
    <g id="Group_28" data-name="Group 28" transform="translate(57.656 48.42)">
      <g id="Group_27" data-name="Group 27">
        <path id="Path_58" data-name="Path 58" d="M494,413.362a1.172,1.172,0,1,0,.343.828A1.18,1.18,0,0,0,494,413.362Z" transform="translate(-492 -413.02)" fill="#326e91"/>
      </g>
    </g>
    <g id="Group_30" data-name="Group 30" transform="translate(12.567 0.022)">
      <g id="Group_29" data-name="Group 29" transform="translate(0 0)">
        <path id="Path_59" data-name="Path 59" d="M143.076.022h-3.867a1.172,1.172,0,1,0,0,2.344h1.038L126.552,16.06,117.59,7.1a1.172,1.172,0,0,0-1.657,0l-8.351,8.351a1.172,1.172,0,0,0,1.657,1.657l7.522-7.522,8.962,8.962a1.172,1.172,0,0,0,1.657,0L141.9,4.023V5.061a1.172,1.172,0,0,0,2.344,0V1.194A1.172,1.172,0,0,0,143.076.022Z" transform="translate(-107.239 -0.022)" fill="#326e91"/>
      </g>
    </g>
    <g id="Group_32" data-name="Group 32" transform="translate(9.609 18.064)">
      <g id="Group_31" data-name="Group 31">
        <path id="Path_60" data-name="Path 60" d="M84,154.324a1.171,1.171,0,1,0,.343.829A1.18,1.18,0,0,0,84,154.324Z" transform="translate(-82 -153.981)" fill="#326e91"/>
      </g>
    </g>
  </g>
</svg>
