<svg xmlns="http://www.w3.org/2000/svg" width="16.852" height="13.69" viewBox="0 0 16.852 13.69">
  <g id="Group_10" data-name="Group 10" transform="translate(-62.376 -90.602)">
    <path id="Path_48" data-name="Path 48" d="M77.45,103.792h-13.3a1.365,1.365,0,0,1-1.278-1.439V92.541A1.368,1.368,0,0,1,64.154,91.1h13.3a1.368,1.368,0,0,1,1.278,1.439v9.813a1.364,1.364,0,0,1-1.278,1.439Zm-13.3-12.114a.823.823,0,0,0-.766.863v9.813a.82.82,0,0,0,.766.863h13.3a.818.818,0,0,0,.766-.863V92.541a.82.82,0,0,0-.766-.863Zm0,0" transform="translate(0 0)" fill="#fff" stroke="#fff" stroke-width="1"/>
    <path id="Path_49" data-name="Path 49" d="M70.638,98.64a1.336,1.336,0,0,1-.939-.379l-6.534-6.411a.315.315,0,0,1-.024-.408.235.235,0,0,1,.36-.029l6.532,6.411a.873.873,0,0,0,1.2,0l6.53-6.408a.235.235,0,0,1,.362.029.312.312,0,0,1-.025.406l-6.528,6.406a1.332,1.332,0,0,1-.939.383Zm0,0" transform="translate(0.166 0.253)" fill="#fff" stroke="#fff" stroke-width="1"/>
  </g>
</svg>
