<svg xmlns="http://www.w3.org/2000/svg" xmlns:xlink="http://www.w3.org/1999/xlink" width="17.133" height="17.818" viewBox="0 0 17.133 17.818">
  <defs>
    <clipPath id="clip-path">
      <rect id="Rectangle_6" data-name="Rectangle 6" width="17.133" height="17.818" fill="#fff" stroke="#fff" stroke-width="1"/>
    </clipPath>
  </defs>
  <g id="Group_8" data-name="Group 8" transform="translate(-71.876 -78.946)">
    <g id="Group_7" data-name="Group 7" transform="translate(71.876 78.946)">
      <g id="Group_6" data-name="Group 6" clip-path="url(#clip-path)">
        <path id="Path_44" data-name="Path 44" d="M76.524,93.351a7.288,7.288,0,0,1-2.5-.531A20.784,20.784,0,0,1,63.407,82.2c-.7-1.871-.7-3.408,0-4.111.1-.1.2-.211.309-.321a3.329,3.329,0,0,1,2.326-1.4A2.788,2.788,0,0,1,68,77.631c1.942,2.411,1.065,3.272.053,4.268l-.179.179c-.163.165-.478.931,2.434,3.843a16.158,16.158,0,0,0,2.407,2.066c.409.266,1.139.665,1.436.368l.181-.181c1-1.011,1.856-1.883,4.266.055a2.765,2.765,0,0,1,1.255,1.962,3.314,3.314,0,0,1-1.4,2.328c-.112.106-.22.209-.321.309a2.225,2.225,0,0,1-1.61.523ZM65.973,76.944c-.683,0-1.3.647-1.846,1.222-.108.116-.216.228-.321.331-.521.525-.468,1.9.136,3.507A20.224,20.224,0,0,0,74.226,92.287c1.608.606,2.981.659,3.5.134.1-.1.216-.209.331-.319.588-.557,1.251-1.19,1.224-1.889a2.306,2.306,0,0,0-1.043-1.539c-2.007-1.616-2.57-1.047-3.5-.1l-.183.185c-.447.447-1.169.348-2.151-.289a16.855,16.855,0,0,1-2.5-2.143c-2.418-2.416-3.19-3.894-2.434-4.654l.183-.179c.948-.931,1.521-1.494-.1-3.5a2.32,2.32,0,0,0-1.541-1.043Zm0,0" transform="translate(-62.877 -76.219)" fill="#fff" stroke="#fff" stroke-width="1"/>
      </g>
    </g>
  </g>
</svg>
