<svg xmlns="http://www.w3.org/2000/svg" width="60" height="67.074" viewBox="0 0 60 67.074">
  <g id="help" transform="translate(-27)">
    <g id="Group_18" data-name="Group 18" transform="translate(27 51.999)">
      <g id="Group_17" data-name="Group 17" transform="translate(0)">
        <path id="Path_53" data-name="Path 53" d="M29.8,401.48a1.637,1.637,0,1,0,.48,1.158A1.65,1.65,0,0,0,29.8,401.48Z" transform="translate(-27 -401)" fill="#326e91"/>
      </g>
    </g>
    <g id="Group_20" data-name="Group 20" transform="translate(27)">
      <g id="Group_19" data-name="Group 19" transform="translate(0)">
        <path id="Path_54" data-name="Path 54" d="M81.842,15.195h0l-8.734-5.9a7.9,7.9,0,0,0-5.579-1.268,6.225,6.225,0,0,0,.13-1.264A6.13,6.13,0,0,0,65.851,2.4l-.592-.592a6.17,6.17,0,0,0-8.725,8.725l.592.592a6.137,6.137,0,0,0,2.62,1.558l-8.814,6.641a3.649,3.649,0,0,0-1.208,1.591,3.64,3.64,0,0,0-1.95.137L39.235,24.1a6.135,6.135,0,0,0,.484-2.4v-.838a6.17,6.17,0,0,0-12.339,0V21.7a6.175,6.175,0,0,0,3.3,5.46A6.041,6.041,0,0,0,27,32.715V48.341a1.31,1.31,0,0,0,2.62,0v-2.4h5.167a1.3,1.3,0,0,0,.736-.226L41.447,41.7a3.5,3.5,0,0,1,5.466,2.9V52.71l-3.668,1.468V47.62A1.31,1.31,0,0,0,41.262,46.5l-6.637,3.971a2.759,2.759,0,0,0-1.336,2.357V64.454H29.62v-5.5a1.31,1.31,0,0,0-2.62,0v6.81a1.31,1.31,0,0,0,1.31,1.31H34.6a1.31,1.31,0,0,0,1.31-1.31V52.823a.127.127,0,0,1,.061-.108l4.655-2.785V65.764a1.31,1.31,0,0,0,1.31,1.31H85.69A1.31,1.31,0,0,0,87,65.764V24.723A11.341,11.341,0,0,0,81.842,15.195ZM58.978,9.272l-.592-.593a3.55,3.55,0,1,1,5.02-5.02L64,4.252a3.55,3.55,0,0,1-5.02,5.02Zm-6.47,12.144,13-9.792a5.284,5.284,0,0,1,6.135-.158L78.9,16.371l-6.41,5.156-5.027-3.4A1.309,1.309,0,0,0,66.237,18l-12.709,5.2a1.045,1.045,0,0,1-1.285-.427l0-.006A1.038,1.038,0,0,1,52.508,21.416ZM30,21.7v-.838a3.55,3.55,0,0,1,7.1,0V21.7a3.55,3.55,0,1,1-7.1,0Zm7.48,12.664v6.855l-3.1,2.1H29.62V32.715a3.415,3.415,0,0,1,2.263-3.21l16.772-5.985a1.039,1.039,0,0,1,.938,1.835L38.048,33.287A1.31,1.31,0,0,0,37.48,34.367Zm5.932,4.1a6.1,6.1,0,0,0-3.312.975V35.056l10.976-7.543a3.637,3.637,0,0,0,1.333-1.687,3.69,3.69,0,0,0,.741.076,3.612,3.612,0,0,0,1.371-.269L66.581,20.7l5.206,3.516a4.751,4.751,0,0,1,1.851,3.75V38.253H71.061a1.311,1.311,0,0,0-.8.273L57.238,48.59l-7.705,3.078V44.592A6.127,6.127,0,0,0,43.413,38.472ZM84.38,64.454H43.245V57L58.38,50.955a1.309,1.309,0,0,0,.315-.18l12.813-9.9H84.38Zm0-26.2H81.76V27.921a1.31,1.31,0,0,0-2.62,0V38.253H76.258V27.961a7.388,7.388,0,0,0-1.719-4.717l6.61-5.317a8.726,8.726,0,0,1,3.232,6.8Z" transform="translate(-27)" fill="#326e91"/>
      </g>
    </g>
    <g id="Group_22" data-name="Group 22" transform="translate(72.044 44.37)">
      <g id="Group_21" data-name="Group 21">
        <path id="Path_55" data-name="Path 55" d="M399.125,352.333H395.3a1.638,1.638,0,1,0,0,3.275h2.183v6.332a1.638,1.638,0,1,0,3.275,0v-7.969A1.638,1.638,0,0,0,399.125,352.333Z" transform="translate(-393.667 -352.333)" fill="#326e91"/>
      </g>
    </g>
  </g>
</svg>
