<svg xmlns="http://www.w3.org/2000/svg" xmlns:xlink="http://www.w3.org/1999/xlink" width="56" height="55" viewBox="0 0 56 55"><defs><path id="htbqa" d="M1041 831.5c0-15.188 12.312-27.5 27.5-27.5s27.5 12.312 27.5 27.5-12.312 27.5-27.5 27.5-27.5-12.312-27.5-27.5z"/><path id="htbqc" d="M1060.462 825.585a.878.878 0 0 0-.877.877v9.967c0 .483.393.877.877.877h15.208a.878.878 0 0 0 .877-.877v-9.967a.878.878 0 0 0-.877-.877zm15.208 12.305h-15.208a1.463 1.463 0 0 1-1.462-1.461v-9.967c0-.807.656-1.462 1.462-1.462h15.208c.806 0 1.462.655 1.462 1.462v9.967c0 .806-.656 1.461-1.462 1.461z"/><path id="htbqd" d="M1068.066 832.914c-.389 0-.778-.13-1.073-.387l-7.472-6.511a.292.292 0 1 1 .385-.44l7.47 6.51c.375.326 1.006.325 1.38 0l7.469-6.51a.29.29 0 0 1 .412.028.292.292 0 0 1-.028.412l-7.47 6.51a1.632 1.632 0 0 1-1.073.388z"/><clipPath id="htbqb"><use fill="#fff" xlink:href="#htbqa"/></clipPath></defs><g><g transform="translate(-1040 -804)"><use fill="#fff" fill-opacity="0" stroke="#fff" stroke-miterlimit="50" stroke-width="2" clip-path="url(&quot;#htbqb&quot;)" xlink:href="#htbqa"/></g><g transform="translate(-1040 -804)"><g><use fill="#fff" xlink:href="#htbqc"/><use fill="#fff" fill-opacity="0" stroke="#fff" stroke-miterlimit="50" stroke-width=".2" xlink:href="#htbqc"/></g><g><use fill="#fff" xlink:href="#htbqd"/><use fill="#fff" fill-opacity="0" stroke="#fff" stroke-miterlimit="50" stroke-width=".2" xlink:href="#htbqd"/></g></g></g></svg>