<svg xmlns="http://www.w3.org/2000/svg" xmlns:xlink="http://www.w3.org/1999/xlink" width="56" height="55" viewBox="0 0 56 55"><defs><path id="qtj7a" d="M672 831.5c0-15.188 12.312-27.5 27.5-27.5s27.5 12.312 27.5 27.5-12.312 27.5-27.5 27.5-27.5-12.312-27.5-27.5z"/><path id="qtj7c" d="M693.349 822.618c-.739 0-1.406.702-1.996 1.323-.119.125-.234.246-.347.36-.566.566-.509 2.053.146 3.79.81 2.146 2.419 4.491 4.53 6.603 2.112 2.11 4.455 3.72 6.602 4.528 1.737.657 3.225.712 3.79.147.113-.113.235-.228.36-.346.634-.603 1.354-1.287 1.323-2.045-.022-.521-.401-1.082-1.128-1.666-2.175-1.749-2.783-1.132-3.792-.109l-.198.2c-.482.483-1.265.376-2.328-.315-.737-.48-1.648-1.26-2.706-2.319-2.615-2.614-3.452-4.214-2.633-5.034l.197-.195c1.025-1.008 1.644-1.617-.106-3.793-.585-.727-1.145-1.106-1.666-1.128h-.048zm11.42 17.757c-.765 0-1.689-.191-2.704-.575-2.226-.839-4.648-2.498-6.82-4.67-2.173-2.172-3.831-4.595-4.671-6.821-.764-2.024-.765-3.685-.005-4.446.11-.109.221-.226.336-.348.694-.73 1.478-1.55 2.518-1.514.716.03 1.41.475 2.121 1.36 2.1 2.611 1.153 3.542.057 4.621l-.193.192c-.18.179-.518 1.009 2.633 4.16 1.028 1.028 1.905 1.781 2.606 2.236.442.287 1.23.721 1.555.397l.194-.196c1.078-1.094 2.009-2.037 4.619.06.884.712 1.329 1.405 1.358 2.123.043 1.039-.784 1.825-1.515 2.518-.12.115-.238.226-.347.335-.378.378-.982.568-1.743.568z"/><clipPath id="qtj7b"><use fill="#fff" xlink:href="#qtj7a"/></clipPath></defs><g><g transform="translate(-671 -804)"><use fill="#fff" fill-opacity="0" stroke="#fff" stroke-miterlimit="50" stroke-width="2" clip-path="url(&quot;#qtj7b&quot;)" xlink:href="#qtj7a"/></g><g transform="translate(-671 -804)"><use fill="#fff" xlink:href="#qtj7c"/><use fill="#fff" fill-opacity="0" stroke="#fff" stroke-miterlimit="50" stroke-width=".2" xlink:href="#qtj7c"/></g></g></svg>