<svg xmlns="http://www.w3.org/2000/svg" width="60" height="54" viewBox="0 0 60 54">
  <path id="suitcase" d="M57,9H44V5a5.006,5.006,0,0,0-5-5H21a5.006,5.006,0,0,0-5,5V9H3a3,3,0,0,0-3,3V34.26a3.013,3.013,0,0,0,2,2.823V51a3,3,0,0,0,3,3H55a3,3,0,0,0,3-3V37.084a3.014,3.014,0,0,0,2-2.824V12A3,3,0,0,0,57,9ZM18,5a3,3,0,0,1,3-3H39a3,3,0,0,1,3,3V9H40V5a1,1,0,0,0-1-1H21a1,1,0,0,0-1,1V9H18ZM38,9H22V6H38ZM56,51a1,1,0,0,1-1,1H5a1,1,0,0,1-1-1V37.427l22,3.034V43a3,3,0,0,0,3,3h2a3,3,0,0,0,3-3V40.461l22-3.034ZM32,43a1,1,0,0,1-1,1H29a1,1,0,0,1-1-1V37a1,1,0,0,1,1-1h2a1,1,0,0,1,1,1Zm26-8.74a1,1,0,0,1-.86.991l-.277.038L34,38.442V37a3,3,0,0,0-3-3H29a3,3,0,0,0-3,3v1.442L2.861,35.251A1,1,0,0,1,2,34.26V12a1,1,0,0,1,1-1H57a1,1,0,0,1,1,1Zm0,0" fill="#326e91"/>
</svg>
