<svg xmlns="http://www.w3.org/2000/svg" width="60" height="59.091" viewBox="0 0 60 59.091">
  <g id="target" transform="translate(-0.001 -0.5)">
    <path id="Path_50" data-name="Path 50" d="M58.584,225.435a5.435,5.435,0,0,0-3.352-1.4,4.8,4.8,0,0,0-3.687,1.4l-6.671,6.6a4.428,4.428,0,0,0-.451-.644,4.325,4.325,0,0,0-3.379-1.511H31.7A19.155,19.155,0,0,1,26.6,229.2a12.563,12.563,0,0,0-11.719,2.48,17.045,17.045,0,0,0-3.052,3.276l-1.675-1.625A1.19,1.19,0,0,0,9.326,233H9.318a1.193,1.193,0,0,0-.846.363l-8.14,8.451a1.181,1.181,0,0,0,.036,1.674l13.768,13.11a1.18,1.18,0,0,0,1.659-.031l8.064-8.274a1.187,1.187,0,0,0-.023-1.68l-.7-.681,1.607-.181a25.544,25.544,0,0,1,2.94-.17H41.891a10.668,10.668,0,0,0,5.829-1.5l.038-.026a7.867,7.867,0,0,0,1.506-1.367l9.576-11.265A4.123,4.123,0,0,0,58.584,225.435ZM14.919,254.081,2.855,242.594l6.5-6.747,11.993,11.639Zm42.122-24.19-9.576,11.266a5.518,5.518,0,0,1-1.036.944,8.394,8.394,0,0,1-4.538,1.117H27.681a27.863,27.863,0,0,0-3.208.186l-3.533.4-7.4-7.179a14.721,14.721,0,0,1,2.829-3.112,10.16,10.16,0,0,1,9.6-2.033,21.514,21.514,0,0,0,5.735.764h9.339a2.132,2.132,0,0,1,2.125,2.311,2.556,2.556,0,0,1-.553,1.638,2.006,2.006,0,0,1-1.61.675h-8.13a1.18,1.18,0,0,0,0,2.361h8.13a4.377,4.377,0,0,0,3.409-1.508,4.848,4.848,0,0,0,1.112-3.008l7.684-7.6a2.763,2.763,0,0,1,3.774.063A1.778,1.778,0,0,1,57.041,229.891Zm0,0" transform="translate(0 -197.329)" fill="#326e91"/>
    <path id="Path_51" data-name="Path 51" d="M231.568,334.132a1.18,1.18,0,1,0-2.3.539l.011.048a1.181,1.181,0,0,0,1.148.911,1.193,1.193,0,0,0,.271-.031,1.18,1.18,0,0,0,.88-1.419Zm0,0" transform="translate(-202.373 -293.73)" fill="#326e91"/>
    <path id="Path_52" data-name="Path 52" d="M46.549,25.4h11.5a2.84,2.84,0,0,0,1.677-.547A2.84,2.84,0,0,0,61.4,25.4h11.5a2.84,2.84,0,0,0,1.677-.547,2.84,2.84,0,0,0,1.677.547h11.5a2.861,2.861,0,0,0,2.857-2.858V17.181a6.189,6.189,0,0,0-3.366-5.533,6.808,6.808,0,1,0-10.484,0,6.183,6.183,0,0,0-2.186,1.874A6.171,6.171,0,0,0,72.4,11.648a6.808,6.808,0,1,0-10.483,0,6.171,6.171,0,0,0-2.186,1.874,6.177,6.177,0,0,0-2.186-1.875,6.808,6.808,0,1,0-10.483,0,6.19,6.19,0,0,0-3.366,5.533v5.363A2.861,2.861,0,0,0,46.549,25.4ZM82.011,2.861a4.448,4.448,0,1,1-4.448,4.448A4.453,4.453,0,0,1,82.011,2.861ZM78.945,13.384a6.784,6.784,0,0,0,6.132,0,3.835,3.835,0,0,1,3.181,3.8v5.363a.5.5,0,0,1-.5.5H76.26a.5.5,0,0,1-.5-.5V17.181A3.835,3.835,0,0,1,78.945,13.384ZM67.156,2.861a4.448,4.448,0,1,1-4.448,4.448A4.453,4.453,0,0,1,67.156,2.861ZM64.089,13.384a6.784,6.784,0,0,0,6.132,0,3.835,3.835,0,0,1,3.181,3.8v5.363a.5.5,0,0,1-.5.5h-11.5a.5.5,0,0,1-.5-.5V17.181A3.836,3.836,0,0,1,64.089,13.384ZM52.3,2.861a4.448,4.448,0,1,1-4.448,4.448A4.453,4.453,0,0,1,52.3,2.861ZM46.052,17.181a3.836,3.836,0,0,1,3.181-3.8,6.784,6.784,0,0,0,6.132,0,3.835,3.835,0,0,1,3.181,3.8v5.363a.5.5,0,0,1-.5.5h-11.5a.5.5,0,0,1-.5-.5Zm0,0" transform="translate(-38.57)" fill="#326e91"/>
  </g>
</svg>
